<svg xmlns="http://www.w3.org/2000/svg" width="162" height="19" viewBox="0 0 162 19"><g fill="#000" fill-rule="nonzero"><path d="M.1 4h2v14h-2zM16.34 4v14H14.7L6.3 7.56V18h-2V4h1.64l8.4 10.44V4zM30.58 4v14h-1.64l-8.4-10.44V18h-2V4h1.64l8.4 10.44V4zM39.1 18.16a7.83 7.83 0 0 1-3.82-.93A6.87 6.87 0 0 1 31.64 11a6.87 6.87 0 0 1 3.64-6.23 7.83 7.83 0 0 1 3.82-.93c1.4 0 2.67.31 3.8.93A6.82 6.82 0 0 1 46.52 11a6.82 6.82 0 0 1-3.62 6.23c-1.13.62-2.4.93-3.8.93Zm0-1.78a5.5 5.5 0 0 0 2.77-.7 5.14 5.14 0 0 0 1.94-1.93 5.4 5.4 0 0 0 .71-2.75 5.4 5.4 0 0 0-.71-2.75 5.14 5.14 0 0 0-1.94-1.93 5.5 5.5 0 0 0-2.77-.7c-1.03 0-1.96.23-2.79.7a5.1 5.1 0 0 0-1.96 1.93 5.4 5.4 0 0 0-.71 2.75c0 1.01.24 1.93.71 2.75a5.1 5.1 0 0 0 1.96 1.93c.83.47 1.76.7 2.79.7ZM59.3 4l-6.14 14h-1.98L45.02 4h2.16l5.04 11.5L57.3 4z"></path><path d="M69.24 16.26V18H59.08V4h9.88v1.74h-7.88v4.3h7.02v1.7h-7.02v4.52h8.16Zm-3.98-16h2.44l-3.36 2.6h-1.8l2.72-2.6ZM79.64 18.16a8.02 8.02 0 0 1-3.58-.74 5.4 5.4 0 0 1-3.1-5.16c0-1.56.35-2.98 1.06-4.26a7.8 7.8 0 0 1 3.01-3.04 8.9 8.9 0 0 1 4.51-1.12 7.8 7.8 0 0 1 3.08.57c.9.38 1.58.92 2.06 1.61l-1.44 1.24c-.84-1.1-2.12-1.64-3.84-1.64-1.3 0-2.43.3-3.4.88a6 6 0 0 0-2.25 2.37c-.53 1-.79 2.08-.79 3.27a4 4 0 0 0 1.25 3.09c.83.77 2.02 1.15 3.57 1.15 1.72 0 3.13-.55 4.24-1.66l1.16 1.32a6.15 6.15 0 0 1-2.39 1.58c-.95.36-2 .54-3.15.54Z"></path><path d="M91.7 18.16a7.84 7.84 0 0 1-3.54-.74 5.28 5.28 0 0 1-2.26-2.07 6 6 0 0 1-.78-3.09c0-1.56.35-2.98 1.06-4.26.7-1.28 1.7-2.3 2.99-3.04a8.7 8.7 0 0 1 4.45-1.12 7.9 7.9 0 0 1 3.55.74c1 .5 1.75 1.18 2.27 2.07a6 6 0 0 1 .78 3.09c0 1.56-.35 2.98-1.06 4.26a7.82 7.82 0 0 1-3 3.04 8.76 8.76 0 0 1-4.46 1.12Zm.18-1.78a5.98 5.98 0 0 0 5.54-3.25c.52-1 .78-2.08.78-3.27 0-1.3-.41-2.32-1.23-3.09-.82-.77-1.99-1.15-3.51-1.15a6.03 6.03 0 0 0-5.55 3.26c-.53 1-.79 2.09-.79 3.26 0 1.3.41 2.32 1.24 3.09.83.77 2 1.15 3.52 1.15ZM105.96 18.16c-1.65 0-2.94-.41-3.87-1.24a4.37 4.37 0 0 1-1.39-3.44c0-.44.05-.95.16-1.52L102.44 4h2l-1.6 7.94c-.1.45-.14.9-.14 1.32 0 1.03.3 1.8.88 2.33.59.53 1.44.79 2.56.79 1.25 0 2.26-.36 3.01-1.08a6.27 6.27 0 0 0 1.59-3.38L112.32 4h1.96l-1.6 8.06c-.41 2.03-1.18 3.55-2.31 4.57a6.32 6.32 0 0 1-4.41 1.53Z"></path><path d="M118.54 5.74h-4.78L114.1 4h11.58l-.36 1.74h-4.78L118.08 18h-1.98z"></path><path d="M129 18.16c-1.65 0-2.94-.41-3.87-1.24a4.37 4.37 0 0 1-1.39-3.44c0-.44.05-.95.16-1.52L125.48 4h2l-1.6 7.94c-.1.45-.14.9-.14 1.32 0 1.03.3 1.8.88 2.33.59.53 1.44.79 2.56.79 1.25 0 2.26-.36 3.01-1.08a6.27 6.27 0 0 0 1.59-3.38L135.36 4h1.96l-1.6 8.06c-.41 2.03-1.18 3.55-2.31 4.57a6.32 6.32 0 0 1-4.41 1.53ZM149.8 8.1c0 1.37-.37 2.52-1.1 3.44a5.63 5.63 0 0 1-3.1 1.9l2.56 4.56h-2.12l-2.44-4.28h-4.12l-.84 4.28h-2.02l2.8-14h5.22c1.64 0 2.91.36 3.81 1.07.9.71 1.35 1.72 1.35 3.03Zm-6.52 3.92c1.44 0 2.55-.32 3.34-.96.79-.64 1.18-1.57 1.18-2.78 0-.84-.29-1.47-.86-1.9a4.1 4.1 0 0 0-2.48-.64h-3.38l-1.26 6.28h3.46ZM153.6 5.74l-.86 4.3h7.04l-.34 1.7h-7.04l-.9 4.52h8.18l-.34 1.74h-10.18l2.8-14h9.88l-.34 1.74z"></path></g></svg>